<svg id="Layer_1" xmlns:rdf="http://www.w3.org/1999/02/22-rdf-syntax-ns#" xmlns="http://www.w3.org/2000/svg" xml:space="preserve" viewBox="0 0 150.2 153.70604" height="153.71" width="150.2" version="1.1" y="0px" x="0px" xmlns:cc="http://creativecommons.org/ns#" xmlns:dc="http://purl.org/dc/elements/1.1/"><style id="style3" type="text/css">
	.st0{fill:#735744;}
</style><path id="path5" style="fill:#735744" class="st0" d="m136 149.51c0 2.3-1.9 4.2-4.2 4.2h-113.3c-2.3 0-4.2-1.9-4.2-4.2v-22.8c0-2.3 1.9-4.2 4.2-4.2h113.3c2.3 0 4.2 1.9 4.2 4.2"/><path id="path7" style="fill:#735744" class="st0" d="m34.1 143.01c0 1.5-1.9 2.7-4.2 2.7h-1.5c-2.3 0-4.2-1.2-4.2-2.7v-23.4c0-1.5 1.9-2.7 4.2-2.7h1.5c2.3 0 4.2 1.2 4.2 2.7"/><path id="path9" style="fill:#735744" class="st0" d="m122.7 0.0060379s5.7-0.4 2.8 7.5c-3 7.9-35.5 84.3-36.6 86.3 0 0 0 4.8-0.6 6.4s-4 4.8-4 4.8v21h-19v-21s-3.4-3.3-4-4.8c-0.6-1.3-0.6-6.4-0.6-6.4-1.4-1.7-36.1-86.2-36.1-86.2s2.2 5.8 0 0c-3-8.1 3.1-7.6 3.1-7.6"/><path id="path11" style="fill:#735744" class="st0" d="m58.4 114.11c0 1.2-1 2.2-2.2 2.2h-54c-1.2 0-2.2-1-2.2-2.2s1-2.2 2.2-2.2h54c1.2 0 2.2 1 2.2 2.2"/><path id="path13" style="fill:#735744" class="st0" d="m125.9 143.01c0 1.5-1.9 2.7-4.2 2.7h-1.4c-2.3 0-4.2-1.2-4.2-2.7v-23.4c0-1.5 1.9-2.7 4.2-2.7h1.5c2.3 0 4.2 1.2 4.2 2.7"/><path id="path15" style="fill:#735744" class="st0" d="m150.2 114.11c0 1.2-1 2.2-2.2 2.2h-54c-1.2 0-2.2-1-2.2-2.2s1-2.2 2.2-2.2h54c1.2 0 2.2 1 2.2 2.2"/></svg>
